<svg width="73" height="72" viewBox="0 0 73 72" fill="none" xmlns="http://www.w3.org/2000/svg">
<g clip-path="url(#clip0_0_144)">
<path fill-rule="evenodd" clip-rule="evenodd" d="M14.7604 16.347C18.8915 10.7636 24.8225 7.58055 31.5472 5.83176C39.7865 3.68911 48.6052 1.15253 55.8268 5.6676C64.7926 11.2733 73.4236 20.6475 71.9875 31.1159C70.5866 41.329 57.9485 44.0957 49.7061 50.2869C40.3629 57.305 33.2155 71.8054 21.9398 68.709C10.6227 65.6011 8.86992 50.2571 7.2764 38.6351C6.15603 30.4639 9.85632 22.9751 14.7604 16.347Z" fill="#B3E3FF"/>
<g clip-path="url(#clip1_0_144)">
<g clip-path="url(#clip2_0_144)">
<g clip-path="url(#clip3_0_144)">
<path d="M59.1286 37.3078C58.966 36.4603 58.2248 35.8476 57.3619 35.8471H55.624L55.4962 35.0812C55.3687 34.3119 54.7627 33.7109 53.9923 33.5899C53.8213 33.5629 53.6485 33.5449 53.4784 33.5215C53.7732 32.1455 53.5283 30.709 52.7944 29.5084C53.1822 28.5026 53.1098 27.3774 52.5964 26.4296C52.083 25.4818 51.1802 24.8065 50.1259 24.5818C49.4519 20.9746 46.3138 18.3525 42.6442 18.3304C42.5542 18.3304 42.4741 18.3421 42.3886 18.3448C41.8023 17.4239 40.8356 16.8128 39.7523 16.678C38.6689 16.5433 37.582 16.899 36.7879 17.6482C35.7876 16.9979 34.6204 16.6513 33.4273 16.6501C31.505 16.6579 29.6932 17.5502 28.5151 19.0693C27.207 18.6878 25.7964 18.922 24.6818 19.7058C23.5671 20.4895 22.8694 21.7376 22.7857 23.0977C21.4117 23.6752 20.5177 25.02 20.5168 26.5105C20.5197 26.7688 20.5498 27.0262 20.6068 27.2782C19.3917 29.11 19.0742 31.3944 19.7437 33.4882C19.5025 33.5215 19.2559 33.5512 19.0237 33.5854C18.2494 33.7022 17.6379 34.3035 17.5081 35.0758L17.3803 35.8444H15.6379C14.7765 35.845 14.0362 36.4558 13.8721 37.3015L9.93104 57.5353C9.77713 58.3277 9.98584 59.1474 10.5 59.7697C11.0141 60.3921 11.7797 60.7517 12.5869 60.7501H31.3555C32.1007 61.9795 34.3651 62.5501 36.4999 62.5501C38.6122 62.5501 40.855 61.993 41.6218 60.7501H60.4129C61.22 60.7516 61.9854 60.3921 62.4995 59.77C63.0136 59.1479 63.2225 58.3285 63.0688 57.5362L59.1286 37.3078ZM23.2384 28.1395C22.5077 27.7001 22.1589 26.8279 22.3853 26.0058C22.6117 25.1837 23.3578 24.613 24.2104 24.6097C24.8072 24.6079 25.3688 24.8915 25.7215 25.3729C25.9132 25.6311 26.228 25.7674 26.5474 25.7305C26.8668 25.6937 27.1423 25.4892 27.2701 25.1941C27.3979 24.8991 27.3586 24.5583 27.1669 24.3001C26.5558 23.4833 25.6297 22.9608 24.6145 22.8601C24.8829 21.5996 25.9944 20.6973 27.283 20.6938C27.3929 20.6993 27.5022 20.7114 27.6106 20.7298C27.5382 20.9143 27.4752 21.1023 27.4216 21.2932C27.3096 21.7696 27.5988 22.2482 28.0727 22.3706C28.5466 22.4929 29.0314 22.2142 29.164 21.7432C29.2664 21.3476 29.4236 20.9683 29.6311 20.6164C30.4295 19.2789 31.8698 18.457 33.4273 18.4501C34.275 18.4538 35.1034 18.704 35.8114 19.1701C35.6766 19.5491 35.6051 19.9477 35.5999 20.35C35.5999 20.847 36.0029 21.25 36.4999 21.25C36.997 21.25 37.3999 20.847 37.3999 20.35C37.3999 19.3044 38.2475 18.4568 39.2931 18.4568C40.3386 18.4568 41.1862 19.3044 41.1862 20.35C41.1862 20.847 41.5892 21.25 42.0862 21.25C42.5833 21.25 42.9862 20.847 42.9862 20.35C42.9862 20.2807 42.9691 20.215 42.9655 20.1457C45.5425 20.3047 47.7096 22.1365 48.2953 24.6511C47.8755 24.7733 47.4811 24.9699 47.1307 25.2316C46.8735 25.4245 46.7387 25.74 46.7772 26.0592C46.8157 26.3785 47.0215 26.6529 47.3172 26.7792C47.6129 26.9055 47.9535 26.8645 48.2107 26.6716C48.9299 26.1391 49.9234 26.1816 50.5946 26.7735C51.2657 27.3654 51.432 28.3458 50.9935 29.1259C50.7976 29.4703 50.4999 29.7457 50.1412 29.9143C49.7651 30.0964 49.5638 30.5134 49.6553 30.9212C49.7467 31.329 50.1068 31.6202 50.5246 31.6243C50.6566 31.6245 50.787 31.5953 50.9062 31.5388C51.1448 31.4232 51.3702 31.2823 51.5785 31.1185C52.0438 32.4411 51.752 33.9121 50.8171 34.957L50.7955 34.9795C49.623 36.2496 47.7527 36.5929 46.2055 35.8219C46.054 35.7418 45.9084 35.651 45.7699 35.5501C46.4329 34.6207 46.5244 33.3999 46.0075 32.3821C45.8628 32.0948 45.5759 31.9065 45.2547 31.8882C44.9336 31.8698 44.627 32.0242 44.4506 32.2932C44.2741 32.5621 44.2546 32.9048 44.3992 33.1921C44.6952 33.7869 44.5106 34.5088 43.9654 34.8886C43.6453 35.1017 43.2498 35.1691 42.8771 35.0741C42.5045 34.979 42.1896 34.7304 42.0106 34.39C41.8668 34.1024 41.5804 33.9133 41.2593 33.8941C40.9383 33.875 40.6314 34.0285 40.4543 34.2969C40.2771 34.5653 40.2567 34.9079 40.4005 35.1955C40.9284 36.261 42.0159 36.9339 43.2049 36.9307C43.592 36.928 43.9752 36.8526 44.3344 36.7084C44.6559 36.9898 45.01 37.2315 45.3892 37.4284C46.6719 38.0932 48.1635 38.2311 49.5463 37.8127C48.6569 39.0271 47.3258 39.8433 45.8401 40.0852C45.3779 40.1604 45.0507 40.5775 45.0875 41.0444C45.1244 41.5112 45.5132 41.8717 45.9814 41.8735C46.0293 41.8735 46.0772 41.8698 46.1245 41.8627C46.6726 41.7678 47.2082 41.6114 47.7211 41.3965C47.9984 41.8867 48.2234 42.4046 48.3925 42.9418C48.4235 43.0356 48.4393 43.1337 48.4393 43.2325C48.4391 43.6215 48.2068 43.9728 47.8489 44.1253C47.435 44.2854 46.965 44.1591 46.687 43.813C45.99 42.9945 45.0773 42.388 44.0527 42.0625C42.1078 41.4109 41.3572 40.8286 41.0386 40.195C41.5056 40.1367 41.9671 40.0404 42.4183 39.907C42.7257 39.8124 42.9593 39.5611 43.0312 39.2476C43.103 38.9341 43.0021 38.6062 42.7666 38.3872C42.531 38.1683 42.1965 38.0916 41.8891 38.1862C41.3841 38.3411 40.8628 38.4368 40.3357 38.4715C39.3202 38.5508 38.3 38.3969 37.3531 38.0215C36.9976 37.8828 36.5933 37.9834 36.3442 38.2726C35.0339 39.7778 32.7912 40.0336 31.1755 38.8622C29.5598 37.6908 29.1056 35.4797 30.1288 33.7663C30.2946 33.4896 30.3001 33.1455 30.1434 32.8636C29.9867 32.5817 29.6915 32.4049 29.369 32.3996C29.0465 32.3944 28.7457 32.5617 28.5799 32.8384C28.3652 33.2038 28.1925 33.5924 28.0651 33.9967C27.3564 33.9594 26.7976 33.3797 26.7862 32.6701V32.6476C26.7858 32.4101 26.6904 32.1826 26.5214 32.0158C26.3524 31.849 26.1237 31.7566 25.8862 31.7593C25.387 31.7642 24.9852 32.1708 24.9862 32.6701C24.9903 34.2662 26.1939 35.604 27.7807 35.776C27.784 36.0777 27.8114 36.3786 27.8626 36.676C25.8531 37.1108 23.7689 36.3885 22.4594 34.8034C21.1499 33.2183 20.8338 31.0352 21.64 29.1439C21.8414 29.3476 22.0662 29.5267 22.3096 29.6776C22.7348 29.9266 23.2812 29.7875 23.5355 29.3654C23.7897 28.9434 23.6573 28.3953 23.2384 28.1359V28.1395ZM19.2784 35.3692C19.6933 35.308 20.1217 35.254 20.5474 35.1982C22.2115 37.8573 25.3941 39.1485 28.4404 38.4004C29.259 39.9539 30.7547 41.0373 32.486 41.3308C34.2173 41.6242 35.9865 41.0941 37.2712 39.8971C37.8829 40.0795 38.5128 40.1936 39.1495 40.2373C39.5842 41.8861 40.8406 42.8851 43.4803 43.7698C44.192 43.9929 44.8268 44.411 45.3127 44.9767C45.853 45.6191 46.6477 45.9925 47.4871 45.9982C47.8543 45.998 48.2176 45.924 48.5554 45.7804C49.5756 45.3444 50.2374 44.3419 50.2375 43.2325C50.2384 42.9431 50.1922 42.6556 50.1007 42.3811C49.8983 41.7452 49.6318 41.1315 49.3051 40.5496C50.8356 39.4494 51.9017 37.8189 52.2958 35.9758C52.4875 35.748 52.6609 35.5055 52.8142 35.2504C53.1157 35.2891 53.4172 35.3233 53.7205 35.3737L56.9695 54.9163C50.6187 52.7956 43.7508 52.7956 37.3999 54.9163V43.6501C37.3999 43.153 36.997 42.7501 36.4999 42.7501C36.0029 42.7501 35.5999 43.153 35.5999 43.6501V54.9199C29.2498 52.7973 22.382 52.7947 16.0303 54.9127L19.2784 35.3692ZM11.8858 58.6189C11.7158 58.4134 11.6465 58.1427 11.6968 57.8809L15.6379 37.6471H17.0779L14.2537 54.6202C14.1544 55.238 14.3819 55.8632 14.855 56.2727C15.3281 56.6822 15.9795 56.8177 16.5766 56.6308C21.3745 55.0763 26.486 54.752 31.4419 55.6876L31.1737 58.9501H12.5869C12.3154 58.9503 12.0581 58.8287 11.8858 58.6189ZM36.4999 60.7501C34.3318 60.7501 33.088 60.1093 32.9053 59.824L33.2149 56.089C34.2046 56.3354 35.173 56.6601 36.1111 57.0601C36.2325 57.1185 36.3653 57.1493 36.4999 57.1501C36.635 57.1499 36.7682 57.1191 36.8896 57.0601C37.8272 56.6577 38.7954 56.3309 39.7849 56.0827L40.0945 59.8231C39.9118 60.1093 38.668 60.7501 36.4999 60.7501ZM61.114 58.6189C60.9417 58.8287 60.6845 58.9503 60.4129 58.9501H41.8288L41.5588 55.6813C46.5175 54.7476 51.6312 55.0748 56.4304 56.6326C57.0275 56.817 57.6774 56.6796 58.1487 56.2693C58.62 55.859 58.8457 55.2342 58.7452 54.6175L55.9237 37.648H57.3637L61.3057 57.88C61.3557 58.1425 61.2853 58.4137 61.114 58.6189Z" fill="black"/>
<path d="M33.5173 29.8666C33.1489 30.1999 33.1202 30.7688 33.4534 31.1374C34.2168 31.9803 35.2259 32.5621 36.3379 32.8006C35.8343 33.5103 35.0175 33.9314 34.1473 33.9301C33.6502 33.9301 33.2473 34.333 33.2473 34.8301C33.2473 35.3272 33.6502 35.7301 34.1473 35.7301C36.0104 35.7375 37.6821 34.5868 38.3404 32.8438C40.5783 32.4729 42.35 30.7504 42.7837 28.5238C42.8507 28.2053 42.7405 27.8755 42.4956 27.6612C42.2507 27.4469 41.9091 27.3815 41.6024 27.4902C41.2956 27.5989 41.0714 27.8647 41.0161 28.1854C40.8396 29.1137 40.304 29.9348 39.5257 30.4705C38.0283 31.479 36.0201 31.2501 34.7881 29.9305C34.4547 29.5621 33.8859 29.5335 33.5173 29.8666Z" fill="black"/>
<path d="M30.3799 28.8901C30.8769 28.8901 31.2799 28.4872 31.2799 27.9901C31.2799 27.3695 31.5264 26.7743 31.9652 26.3355C32.4041 25.8966 32.9993 25.6501 33.6199 25.6501C34.1169 25.6501 34.5199 25.2472 34.5199 24.7501C34.5199 24.253 34.1169 23.8501 33.6199 23.8501C31.3344 23.8526 29.4824 25.7047 29.4799 27.9901C29.4799 28.2288 29.5747 28.4577 29.7435 28.6265C29.9123 28.7953 30.1412 28.8901 30.3799 28.8901Z" fill="black"/>
<path d="M37.3999 11.2501V10.3501C37.3999 9.85302 36.997 9.45007 36.4999 9.45007C36.0028 9.45007 35.5999 9.85302 35.5999 10.3501V11.2501C35.5999 11.7471 36.0028 12.1501 36.4999 12.1501C36.997 12.1501 37.3999 11.7471 37.3999 11.2501Z" fill="black"/>
<path d="M51.269 15.9084L50.369 16.8084C50.135 17.0344 50.0412 17.369 50.1236 17.6837C50.2059 17.9984 50.4517 18.2441 50.7664 18.3265C51.081 18.4088 51.4156 18.315 51.6416 18.081L52.5416 17.181C52.7756 16.9551 52.8694 16.6205 52.787 16.3058C52.7047 15.9911 52.4589 15.7454 52.1443 15.663C51.8296 15.5807 51.495 15.6745 51.269 15.9084Z" fill="black"/>
<path d="M21.9946 18.3448C22.3586 18.3447 22.6867 18.1254 22.8259 17.7891C22.9652 17.4529 22.8882 17.0658 22.6309 16.8084L21.7309 15.9084C21.505 15.6745 21.1703 15.5807 20.8557 15.663C20.541 15.7454 20.2953 15.9911 20.2129 16.3058C20.1305 16.6205 20.2244 16.9551 20.4583 17.181L21.3583 18.0811C21.5271 18.2498 21.756 18.3447 21.9946 18.3448Z" fill="black"/>
<path d="M28.9229 14.5576C29.0411 14.5574 29.1582 14.5341 29.2676 14.4892C29.4882 14.3978 29.6634 14.2226 29.7548 14.0019C29.8461 13.7813 29.846 13.5335 29.7545 13.3129L28.7204 10.8181C28.6019 10.5143 28.3284 10.2983 28.0053 10.2535C27.6823 10.2088 27.3603 10.3423 27.1637 10.6026C26.9671 10.8628 26.9267 11.209 27.0581 11.5075L28.0913 14.0023C28.2307 14.3386 28.5589 14.5577 28.9229 14.5576Z" fill="black"/>
<path d="M45.455 10.3312C44.9959 10.1413 44.4699 10.3592 44.2796 10.8181L43.2455 13.3129C43.1537 13.5335 43.1535 13.7816 43.2448 14.0024C43.3361 14.2233 43.5115 14.3987 43.7324 14.4901C43.8417 14.535 43.9588 14.5582 44.0771 14.5585C44.4411 14.5586 44.7693 14.3394 44.9087 14.0032L45.9419 11.5084C46.0336 11.2877 46.0339 11.0396 45.9425 10.8188C45.8512 10.598 45.6758 10.4225 45.455 10.3312Z" fill="black"/>
<path d="M54.7925 25.274C54.9108 25.2737 55.028 25.2502 55.1372 25.2047L57.6311 24.1715C57.9282 24.0485 58.1371 23.7763 58.1792 23.4575C58.2212 23.1387 58.09 22.8217 57.8349 22.6259C57.5798 22.4301 57.2397 22.3853 56.9426 22.5083L54.4478 23.5415C54.0497 23.705 53.8231 24.1275 53.907 24.5496C53.991 24.9717 54.3621 25.2753 54.7925 25.274Z" fill="black"/>
<path d="M17.8628 25.2045C18.322 25.3949 18.8487 25.1769 19.0391 24.7176C19.2294 24.2583 19.0114 23.7317 18.5522 23.5413L16.0574 22.5081C15.5981 22.318 15.0716 22.5362 14.8815 22.9955C14.6914 23.4548 14.9096 23.9812 15.3689 24.1713L17.8628 25.2045Z" fill="black"/>
</g>
</g>
</g>
</g>
<defs>
<clipPath id="clip0_0_144">
<rect width="72" height="72" fill="white" transform="translate(0.5)"/>
</clipPath>
<clipPath id="clip1_0_144">
<rect width="54" height="54" fill="white" transform="translate(9.5 9)"/>
</clipPath>
<clipPath id="clip2_0_144">
<rect width="53.2367" height="53.1" fill="white" transform="translate(9.88148 9.45007)"/>
</clipPath>
<clipPath id="clip3_0_144">
<rect width="53.2367" height="53.1" fill="white" transform="translate(9.88148 9.45007)"/>
</clipPath>
</defs>
</svg>
