<svg width="73" height="72" viewBox="0 0 73 72" fill="none" xmlns="http://www.w3.org/2000/svg">
<g clip-path="url(#clip0_0_164)">
<path fill-rule="evenodd" clip-rule="evenodd" d="M14.7603 16.347C18.8915 10.7636 24.8225 7.58055 31.5472 5.83176C39.7865 3.68911 48.6052 1.15253 55.8268 5.6676C64.7926 11.2733 73.4236 20.6475 71.9875 31.1159C70.5865 41.329 57.9485 44.0957 49.7061 50.2869C40.3628 57.305 33.2155 71.8054 21.9398 68.709C10.6227 65.6011 8.86992 50.2571 7.2764 38.6351C6.15603 30.4639 9.85631 22.9751 14.7603 16.347Z" fill="#E77C40"/>
<g clip-path="url(#clip1_0_164)">
<g clip-path="url(#clip2_0_164)">
<g clip-path="url(#clip3_0_164)">
<path d="M62.6004 9C62.6003 9 62.6001 9 62.6 9H10.4C9.90309 8.99989 9.50011 9.40264 9.5 9.89955C9.5 9.89966 9.5 9.89989 9.5 9.9V27.9H11.3V10.8H61.7V30.6H30.2V32.4H62.6C63.0969 32.4001 63.4999 31.9974 63.5 31.5004C63.5 31.5003 63.5 31.5001 63.5 31.5V9.9C63.5001 9.40309 63.0974 9.00011 62.6004 9Z" fill="white"/>
</g>
</g>
<g clip-path="url(#clip4_0_164)">
<g clip-path="url(#clip5_0_164)">
<path d="M57.2 13.5H39.2V15.3H57.2V13.5Z" fill="white"/>
</g>
</g>
<g clip-path="url(#clip6_0_164)">
<g clip-path="url(#clip7_0_164)">
<path d="M59.9 18.9H41.9V20.7H59.9V18.9Z" fill="white"/>
</g>
</g>
<g clip-path="url(#clip8_0_164)">
<g clip-path="url(#clip9_0_164)">
<path d="M56.3 24.3H38.3V26.1H56.3V24.3Z" fill="white"/>
</g>
</g>
<g clip-path="url(#clip10_0_164)">
<g clip-path="url(#clip11_0_164)">
<path d="M38.2282 16.7596C37.6121 15.2785 35.912 14.5774 34.431 15.1936C34.4057 15.2041 34.3805 15.2149 34.3555 15.2262L27.0579 19.0118C27.3457 18.4153 27.4967 17.7622 27.5 17.1C27.5 14.6147 25.4852 12.6 23 12.6C20.5148 12.6 18.5 14.6147 18.5 17.1C18.5034 18.0768 18.8277 19.0255 19.4231 19.8H19.3856C16.831 19.8171 14.5505 21.4052 13.6486 23.7955L11.246 32.0765C10.6741 33.5622 11.4147 35.2304 12.9005 35.8023C13.578 36.0631 14.3289 36.0587 15.0034 35.7899C15.7783 35.4777 16.3813 34.8473 16.6588 34.0593L17.6 31.064V44.0896C16.8256 43.4944 15.8768 43.17 14.9 43.1666C12.4185 43.1628 10.4037 45.1715 10.4 47.6532C10.3982 48.8685 10.8887 50.0327 11.7598 50.8802C10.3774 51.5865 9.5054 53.0058 9.5 54.5581V62.1C9.49989 62.5969 9.90264 62.9999 10.3996 63C10.3997 63 10.3999 63 10.4 63H19.4C19.8969 63.0001 20.2999 62.5973 20.3 62.1004C20.3 62.1003 20.3 62.1001 20.3 62.1V54.5581C20.2956 53.2824 19.703 52.0803 18.694 51.3H25.5062C24.497 52.0803 23.9044 53.2824 23.9001 54.5581V62.1C23.9 62.5969 24.3027 62.9999 24.7997 63C24.7998 63 24.8 63 24.8001 63H33.8001C34.297 63.0001 34.7 62.5973 34.7001 62.1004C34.7001 62.1003 34.7001 62.1001 34.7001 62.1V54.5581C34.6947 53.0058 33.8227 51.5865 32.4403 50.8802C34.2173 49.1458 34.2518 46.2992 32.5174 44.5223C31.4493 43.428 29.8983 42.9516 28.4001 43.2576V24.8466L36.6622 20.5566C38.1432 19.9406 38.8443 18.2405 38.2282 16.7596ZM23 14.4C24.4912 14.4 25.7 15.6088 25.7 17.1C25.7 18.5912 24.4912 19.8 23 19.8C21.5095 19.7984 20.3016 18.5905 20.3 17.1C20.3 15.6088 21.5088 14.4 23 14.4ZM14.9 44.9666C16.3912 44.9666 17.6 46.1754 17.6 47.6666C17.6 49.1577 16.3912 50.3666 14.9 50.3666C13.4088 50.3666 12.2 49.1577 12.2 47.6666C12.2016 46.176 13.4095 44.9682 14.9 44.9666ZM18.5 61.2H11.3V54.5581C11.3018 53.2563 12.3567 52.2015 13.6586 52.2H16.1414C17.4432 52.2015 18.4982 53.2563 18.5 54.5581V61.2ZM32.9 54.5581V61.2H25.7V54.5581C25.7018 53.2563 26.7567 52.2015 28.0586 52.2H30.5414C31.8433 52.2015 32.8982 53.2563 32.9 54.5581ZM29.3 44.9666C30.7905 44.9681 31.9984 46.176 32 47.6666C32 49.1577 30.7912 50.3666 29.3 50.3666C27.8088 50.3666 26.6 49.1577 26.6 47.6666C26.6 46.1754 27.8088 44.9666 29.3 44.9666ZM36.5813 18.261C36.4609 18.5701 36.2135 18.8128 35.902 18.9272L27.0857 23.501C26.7873 23.6558 26.6 23.9639 26.6 24.3V44.0896C24.9142 45.3361 24.3302 47.5921 25.1996 49.5H23.9V34.2H22.1V49.5H19.0004C19.2564 48.9341 19.3913 48.321 19.3966 47.7H19.4V25.2C19.3999 24.7028 18.9968 24.3 18.4998 24.3001C18.1068 24.3002 17.7593 24.5552 17.6414 24.9302L14.954 33.4819C14.7504 34.0435 14.1299 34.3337 13.5683 34.13C13.529 34.1157 13.4904 34.0992 13.4528 34.0804C12.9336 33.8121 12.7132 33.1857 12.9502 32.6513L15.3526 24.3703C16.0005 22.7064 17.5999 21.6077 19.3855 21.6H25.7581C25.9023 21.6002 26.0445 21.5654 26.1725 21.4989L35.1176 16.8557C35.6542 16.6319 36.2728 16.8609 36.534 17.3804C36.6725 17.6543 36.6897 17.9738 36.5813 18.261Z" fill="white"/>
</g>
</g>
<g clip-path="url(#clip12_0_164)">
<g clip-path="url(#clip13_0_164)">
<path d="M46.8402 50.8803C48.6203 49.146 48.6574 46.2969 46.9231 44.5168C45.1888 42.7368 42.3398 42.6996 40.5597 44.4339C38.7796 46.1682 38.7425 49.0173 40.4768 50.7974C40.5041 50.8254 40.5318 50.8531 40.5598 50.8803C39.1775 51.5866 38.3054 53.0059 38.3 54.5581V62.1C38.2999 62.5969 38.7026 62.9999 39.1995 63C39.1997 63 39.1999 63 39.2 63H48.2C48.6969 63.0001 49.0999 62.5974 49.1 62.1005C49.1 62.1004 49.1 62.1001 49.1 62.1V54.5581C49.0946 53.0059 48.2226 51.5866 46.8402 50.8803ZM43.7 44.9666C45.1912 44.9666 46.4 46.1754 46.4 47.6666C46.4 49.1578 45.1912 50.3666 43.7 50.3666C42.2088 50.3666 41 49.1578 41 47.6666C41.0016 46.1761 42.2095 44.9683 43.7 44.9666ZM47.3 61.2H40.1V54.5581C40.1018 53.2564 41.1567 52.2016 42.4586 52.2H44.9414C46.2432 52.2016 47.2982 53.2564 47.3 54.5581V61.2Z" fill="white"/>
</g>
</g>
<g clip-path="url(#clip14_0_164)">
<g clip-path="url(#clip15_0_164)">
<path d="M61.2402 50.8803C63.0203 49.146 63.0574 46.2969 61.3231 44.5168C59.5888 42.7368 56.7398 42.6996 54.9597 44.4339C53.1796 46.1682 53.1425 49.0173 54.8768 50.7974C54.9041 50.8254 54.9318 50.8531 54.9598 50.8803C53.5775 51.5866 52.7054 53.0059 52.7 54.5581V62.1C52.6999 62.5969 53.1026 62.9999 53.5996 63C53.5997 63 53.5999 63 53.6 63H62.6C63.0969 63.0001 63.4999 62.5974 63.5 62.1005C63.5 62.1004 63.5 62.1001 63.5 62.1V54.5581C63.4946 53.0059 62.6226 51.5866 61.2402 50.8803ZM58.1 44.9666C59.5912 44.9666 60.8 46.1754 60.8 47.6666C60.8 49.1578 59.5912 50.3666 58.1 50.3666C56.6088 50.3666 55.4 49.1578 55.4 47.6666C55.4016 46.1761 56.6095 44.9683 58.1 44.9666ZM61.7 61.2H54.5V54.5581C54.5018 53.2564 55.5567 52.2016 56.8586 52.2H59.3414C60.6432 52.2016 61.6982 53.2564 61.7 54.5581V61.2Z" fill="white"/>
</g>
</g>
</g>
</g>
<defs>
<clipPath id="clip0_0_164">
<rect width="72" height="72" fill="white" transform="translate(0.5)"/>
</clipPath>
<clipPath id="clip1_0_164">
<rect width="54" height="54" fill="white" transform="translate(9.5 9)"/>
</clipPath>
<clipPath id="clip2_0_164">
<rect width="54" height="23.4" fill="white" transform="translate(9.5 9)"/>
</clipPath>
<clipPath id="clip3_0_164">
<rect width="54" height="23.4" fill="white" transform="translate(9.5 9)"/>
</clipPath>
<clipPath id="clip4_0_164">
<rect width="18" height="1.8" fill="white" transform="translate(39.2 13.5)"/>
</clipPath>
<clipPath id="clip5_0_164">
<rect width="18" height="1.8" fill="white" transform="translate(39.2 13.5)"/>
</clipPath>
<clipPath id="clip6_0_164">
<rect width="18" height="1.8" fill="white" transform="translate(41.9 18.9)"/>
</clipPath>
<clipPath id="clip7_0_164">
<rect width="18" height="1.8" fill="white" transform="translate(41.9 18.9)"/>
</clipPath>
<clipPath id="clip8_0_164">
<rect width="18" height="1.8" fill="white" transform="translate(38.3 24.3)"/>
</clipPath>
<clipPath id="clip9_0_164">
<rect width="18" height="1.8" fill="white" transform="translate(38.3 24.3)"/>
</clipPath>
<clipPath id="clip10_0_164">
<rect width="28.9517" height="50.4" fill="white" transform="translate(9.5 12.6)"/>
</clipPath>
<clipPath id="clip11_0_164">
<rect width="28.9517" height="50.4" fill="white" transform="translate(9.5 12.6)"/>
</clipPath>
<clipPath id="clip12_0_164">
<rect width="10.8" height="19.8429" fill="white" transform="translate(38.3 43.1571)"/>
</clipPath>
<clipPath id="clip13_0_164">
<rect width="10.8" height="19.8429" fill="white" transform="translate(38.3 43.1571)"/>
</clipPath>
<clipPath id="clip14_0_164">
<rect width="10.8" height="19.8429" fill="white" transform="translate(52.7 43.1571)"/>
</clipPath>
<clipPath id="clip15_0_164">
<rect width="10.8" height="19.8429" fill="white" transform="translate(52.7 43.1571)"/>
</clipPath>
</defs>
</svg>
