<svg width="73" height="72" viewBox="0 0 73 72" fill="none" xmlns="http://www.w3.org/2000/svg">
<g clip-path="url(#clip0_0_193)">
<path fill-rule="evenodd" clip-rule="evenodd" d="M14.7603 16.347C18.8915 10.7636 24.8224 7.58055 31.5472 5.83176C39.7864 3.68911 48.6052 1.15253 55.8267 5.6676C64.7926 11.2733 73.4235 20.6475 71.9875 31.1159C70.5865 41.329 57.9485 44.0957 49.7061 50.2869C40.3628 57.305 33.2155 71.8054 21.9398 68.709C10.6227 65.6011 8.8699 50.2571 7.27639 38.6351C6.15602 30.4639 9.8563 22.9751 14.7603 16.347Z" fill="#B3E3FF"/>
<g clip-path="url(#clip1_0_193)">
<g clip-path="url(#clip2_0_193)">
<path d="M63.4785 52.4409V47.6893H58.4101V44.5215H56.7206V41.8817H58.4101V37.1301H45.7769V38.714H56.8262V40.2979H24.0552V41.8817H55.1367V44.5215H20.6611C19.9333 44.5215 19.3412 43.9295 19.3412 43.2016C19.3412 42.4738 19.9333 41.8817 20.6611 41.8817H22.4713V40.2979H20.6611C19.0601 40.2979 17.7574 41.6004 17.7574 43.2016C17.7574 44.8028 19.0601 46.1054 20.6611 46.1054H56.8261V47.6893H29.5308V49.2731H61.8945V50.857H17.1766C14.7021 50.857 12.689 52.8701 12.689 55.3446C12.689 57.8192 14.7021 59.8323 17.1766 59.8323H54.4804V58.2484H17.1767C15.5755 58.2484 14.273 56.9458 14.273 55.3446C14.273 53.7434 15.5755 52.4409 17.1767 52.4409H60.2052V55.0806H25.0961V56.6645H60.2052V58.2484H56.0644V59.8323H61.8946V61.4161H17.1767C13.8289 61.4161 11.1052 58.6925 11.1052 55.3446C11.1052 51.9967 13.8289 49.2731 17.1767 49.2731H27.947V47.6893H20.6612C18.1867 47.6893 16.1736 45.6762 16.1736 43.2016C16.1736 40.7271 18.1867 38.714 20.6612 38.714H44.193V37.1301H20.6612C17.3134 37.1301 14.5897 39.8537 14.5897 43.2016C14.5897 44.9906 15.3678 46.6008 16.6029 47.713C12.649 48.0077 9.52136 51.3166 9.52136 55.3446C9.52136 59.5659 12.9555 63 17.1767 63H63.4785V58.2484H61.789V52.4409H63.4785Z" fill="black"/>
<path d="M21.9283 55.0807H23.5122V56.6646H21.9283V55.0807Z" fill="black"/>
<path d="M24.0929 32.5383L24.4456 32.7734C24.5831 32.8651 27.9115 35.0183 36.4999 35.0183C45.0882 35.0183 48.4167 32.8651 48.5542 32.7734L48.9068 32.5383V19.2049L53.6584 17.621V25.0978C52.4412 25.4435 51.5466 26.5644 51.5466 27.8909V31.8506H57.3541V27.8909C57.3541 26.5644 56.4596 25.4435 55.2423 25.0978V17.093L58.0106 16.1703L49.6936 13.3979L49.1927 14.9004L53.002 16.1702L36.4999 21.6709L19.9978 16.1703L36.4999 10.6696L47.6901 14.3997L48.191 12.8972L36.4999 9L14.9891 16.1703L24.0929 19.2049V32.5383ZM55.7703 27.8909V30.2667H53.1305V27.8909C53.1305 27.1631 53.7225 26.571 54.4504 26.571C55.1782 26.571 55.7703 27.1631 55.7703 27.8909ZM25.6768 19.7328L36.4999 23.3406L47.323 19.7328V25.9375H45.3695V27.5213H47.323V29.1052H43.8913V30.6891H47.323V31.6438C46.3023 32.1408 43.0185 33.4344 36.4999 33.4344C29.9762 33.4344 26.6923 32.1388 25.6768 31.6443V19.7328Z" fill="black"/>
<path d="M18.7606 55.0807H20.3445V56.6646H18.7606V55.0807Z" fill="black"/>
<path d="M40.7235 29.1052H42.3074V30.6891H40.7235V29.1052Z" fill="black"/>
</g>
</g>
</g>
<defs>
<clipPath id="clip0_0_193">
<rect width="72" height="72" fill="white" transform="translate(0.5)"/>
</clipPath>
<clipPath id="clip1_0_193">
<rect width="54" height="54" fill="white" transform="translate(9.5 9)"/>
</clipPath>
<clipPath id="clip2_0_193">
<rect width="53.9571" height="54" fill="white" transform="translate(9.52136 9)"/>
</clipPath>
</defs>
</svg>
